# File created by Blade
# Date/Time:  Wed Apr 08 17:00:17 2015
# Frame Rate: 120.000 fps
#------------------------------------------------------
:FULLY-SPECIFIED
:DEGREES
1311
root 1.511487 35.687851 2.807209 -28.112378 -78.306995 14.556109
Spine 9.606567 4.223975 -10.078188
Head 8.004954 -10.921909 6.399709
LeftShoulder 8.798409 -2.075977 26.957893
LeftArm 91.194501 46.600563 -45.161416
LeftForeArm -49.576223 0.000000 93.624728
LeftHand -28.488789 -0.000000 17.148775
LeftHandThumb1 -26.253704 0.000000 33.147579
RightShoulder 6.793124 -29.858182 -27.475558
RightArm 77.251077 22.834672 11.713416
RightForeArm -22.958999 -0.000000 37.138585
RightHand 9.311844 -0.000000 11.950463
RightHandThumb1 -24.326973 -0.000000 -32.862282
LeftUpLeg 14.585421 6.718116 5.712806
LeftLeg 11.754448 -0.000000 -0.000000
LeftFoot -13.610817 -3.440307 -12.009801
LeftToeBase 10.523467 -0.000000 -0.000000
RightUpLeg 24.305529 -18.125988 -18.244764
RightLeg 1.626045 -0.000000 -0.000000
RightFoot -11.654751 5.696953 20.436440
RightToeBase 14.852442 -0.000000 -0.000000
1312
root 1.510519 35.687370 2.807715 -28.074114 -78.319115 14.526739
Spine 9.593799 4.300977 -10.085230
Head 7.981923 -11.089803 6.443811
LeftShoulder 8.789483 -2.171201 26.940141
LeftArm 91.224462 46.588329 -45.184872
LeftForeArm -49.376140 0.000000 93.554817
LeftHand -28.363333 -0.000000 17.443171
LeftHandThumb1 -26.253704 0.000000 33.147579
RightShoulder 6.721002 -29.983873 -27.467756
RightArm 77.128943 22.798940 10.595187
RightForeArm -23.698093 -0.000000 38.595730
RightHand 9.333517 0.000000 12.375992
RightHandThumb1 -24.326973 -0.000000 -32.862282
LeftUpLeg 14.564963 6.696746 5.713175
LeftLeg 11.781884 -0.000000 -0.000000
LeftFoot -13.638755 -3.423518 -12.024127
LeftToeBase 10.535887 -0.000000 -0.000000
RightUpLeg 24.288698 -18.131377 -18.237243
RightLeg 1.640039 -0.000000 -0.000000
RightFoot -11.654870 5.707086 20.424051
RightToeBase 14.825670 -0.000000 -0.000000
1313
root 1.507465 35.687074 2.808153 -28.002863 -78.327022 14.456411
Spine 9.586538 4.360108 -10.092798
Head 7.950887 -11.238574 6.497162
LeftShoulder 8.781325 -2.262226 26.943464
LeftArm 91.025537 46.611663 -45.433690
LeftForeArm -49.374357 -0.000000 93.564505
LeftHand -28.458318 -0.000000 17.463941
LeftHandThumb1 -26.253704 0.000000 33.147579
RightShoulder 6.674680 -30.122314 -27.468340
RightArm 77.032188 22.779872 9.563944
RightForeArm -24.243628 -0.000000 40.085507
RightHand 9.374003 0.000000 12.252218
RightHandThumb1 -24.326973 -0.000000 -32.862282
LeftUpLeg 14.559765 6.691960 5.728397
LeftLeg 11.799434 -0.000000 -0.000000
LeftFoot -13.660255 -3.418661 -12.013567
LeftToeBase 10.561277 -0.000000 -0.000000
RightUpLeg 24.293842 -18.140312 -18.226128
RightLeg 1.635676 -0.000000 -0.000000
RightFoot -11.642077 5.718950 20.422287
RightToeBase 14.807128 -0.000000 -0.000000
1314
root 1.504675 35.687045 2.809325 -27.907135 -78.305261 14.374402
Spine 9.560901 4.412297 -10.107254
Head 7.957306 -11.389123 6.541040
LeftShoulder 8.785610 -2.330464 26.930193
LeftArm 90.823311 46.638060 -45.685632
LeftForeArm -49.473672 -0.000000 93.562595
LeftHand -28.498486 -0.000000 17.423730
LeftHandThumb1 -26.253704 0.000000 33.147579
RightShoulder 6.592422 -30.293501 -27.478730
RightArm 76.973574 22.754568 8.638650
RightForeArm -24.862791 -0.000000 41.578038
RightHand 9.496601 -0.000000 12.233496
RightHandThumb1 -24.326973 -0.000000 -32.862282
LeftUpLeg 14.531470 6.650228 5.720639
LeftLeg 11.821881 -0.000000 -0.000000
LeftFoot -13.670309 -3.380460 -11.980254
LeftToeBase 10.515290 -0.000000 -0.000000
RightUpLeg 24.301045 -18.184860 -18.231662
RightLeg 1.627868 -0.000000 -0.000000
RightFoot -11.625918 5.734640 20.427087
RightToeBase 14.828673 -0.000000 -0.000000
1315
root 1.501458 35.687494 2.810904 -27.820805 -78.267250 14.306537
Spine 9.536193 4.452024 -10.144865
Head 7.931571 -11.530895 6.613806
LeftShoulder 8.783986 -2.370776 26.943735
LeftArm 90.661994 46.661058 -45.909413
LeftForeArm -49.633375 -0.000000 93.534711
LeftHand -28.509399 -0.000000 17.373444
LeftHandThumb1 -26.253704 0.000000 33.147579
RightShoulder 6.519581 -30.440017 -27.447643
RightArm 76.974730 22.743218 7.841364
RightForeArm -25.008697 -0.000000 43.126772
RightHand 9.521525 -0.000000 12.674582
RightHandThumb1 -24.326973 -0.000000 -32.862282
LeftUpLeg 14.497252 6.614057 5.709605
LeftLeg 11.843931 -0.000000 -0.000000
LeftFoot -13.671324 -3.379341 -11.978038
LeftToeBase 10.487468 -0.000000 -0.000000
RightUpLeg 24.314493 -18.237045 -18.244888
RightLeg 1.610174 -0.000000 -0.000000
RightFoot -11.610256 5.738686 20.425417
RightToeBase 14.831676 -0.000000 -0.000000
1316
root 1.497772 35.687830 2.812176 -27.718174 -78.225825 14.219380
Spine 9.514669 4.478273 -10.181118
Head 7.893790 -11.654973 6.675035
LeftShoulder 8.777733 -2.376977 26.949524
LeftArm 90.558503 46.669276 -46.067801
LeftForeArm -49.726278 -0.000000 93.520321
LeftHand -28.568831 -0.000000 17.476900
LeftHandThumb1 -26.253704 0.000000 33.147579
RightShoulder 6.420047 -30.604782 -27.420989
RightArm 76.978030 22.733703 7.055547
RightForeArm -25.435843 -0.000000 44.647300
RightHand 9.511242 -0.000000 13.583295
RightHandThumb1 -24.326973 -0.000000 -32.862282
LeftUpLeg 14.469687 6.577560 5.704671
LeftLeg 11.858520 -0.000000 -0.000000
LeftFoot -13.669370 -3.378822 -11.968223
LeftToeBase 10.468011 -0.000000 -0.000000
RightUpLeg 24.335691 -18.286745 -18.253208
RightLeg 1.586341 -0.000000 -0.000000
RightFoot -11.594547 5.733811 20.417550
RightToeBase 14.822239 -0.000000 -0.000000
1317
root 1.494351 35.688735 2.812873 -27.596798 -78.179524 14.120220
Spine 9.485224 4.487521 -10.215488
Head 7.882849 -11.758504 6.702974
LeftShoulder 8.757860 -2.340694 26.943572
LeftArm 90.538874 46.659624 -46.131719
LeftForeArm -49.716594 -0.000000 93.520307
LeftHand -28.681965 -0.000000 17.728503
LeftHandThumb1 -26.253704 0.000000 33.147579
RightShoulder 6.329098 -30.734195 -27.398811
RightArm 76.968088 22.679239 6.237353
RightForeArm -26.039402 -0.000000 46.147654
RightHand 9.486873 0.000000 13.857943
RightHandThumb1 -24.326973 -0.000000 -32.862282
LeftUpLeg 14.433136 6.550173 5.705750
LeftLeg 11.873552 -0.000000 -0.000000
LeftFoot -13.670292 -3.403215 -11.955297
LeftToeBase 10.472235 -0.000000 -0.000000
RightUpLeg 24.352763 -18.323055 -18.248603
RightLeg 1.553058 -0.000000 -0.000000
RightFoot -11.573131 5.701789 20.424276
RightToeBase 14.804786 -0.000000 -0.000000
1318
root 1.489647 35.689315 2.813770 -27.481627 -78.123223 14.029514
Spine 9.455398 4.503878 -10.256863
Head 7.818567 -11.863194 6.750461
LeftShoulder 8.750236 -2.330153 26.920822
LeftArm 90.575222 46.653509 -46.115600
LeftForeArm -49.697467 -0.000000 93.483926
LeftHand -28.696646 -0.000000 17.901460
LeftHandThumb1 -26.253704 0.000000 33.147579
RightShoulder 6.222221 -30.871812 -27.345968
RightArm 77.016266 22.650580 5.470972
RightForeArm -26.524072 -0.000000 47.629953
RightHand 9.483934 -0.000000 14.217592
RightHandThumb1 -24.326973 -0.000000 -32.862282
LeftUpLeg 14.402643 6.540176 5.711409
LeftLeg 11.873440 -0.000000 -0.000000
LeftFoot -13.657082 -3.452028 -11.955997
LeftToeBase 10.485060 -0.000000 -0.000000
RightUpLeg 24.371214 -18.368723 -18.247886
RightLeg 1.523323 -0.000000 -0.000000
RightFoot -11.572609 5.664739 20.386162
RightToeBase 14.815429 -0.000000 -0.000000
1319
root 1.485146 35.689650 2.814492 -27.386444 -78.074831 13.954704
Spine 9.427903 4.549834 -10.297337
Head 7.765900 -11.991067 6.783281
LeftShoulder 8.768711 -2.330004 26.905740
LeftArm 90.661748 46.643513 -46.024061
LeftForeArm -49.554717 -0.000000 93.458160
LeftHand -28.679887 -0.000000 18.082874
LeftHandThumb1 -26.253704 0.000000 33.147579
RightShoulder 6.111404 -30.989853 -27.282145
RightArm 77.085005 22.590454 4.781794
RightForeArm -27.011367 0.000000 49.087680
RightHand 9.481926 -0.000000 14.524092
RightHandThumb1 -24.326973 -0.000000 -32.862282
LeftUpLeg 14.379961 6.513801 5.706990
LeftLeg 11.871124 -0.000000 -0.000000
LeftFoot -13.650614 -3.469437 -11.954439
LeftToeBase 10.481260 -0.000000 -0.000000
RightUpLeg 24.386759 -18.391152 -18.240719
RightLeg 1.495462 -0.000000 -0.000000
RightFoot -11.570386 5.616099 20.391913
RightToeBase 14.773244 -0.000000 -0.000000
1320
root 1.480540 35.689943 2.815063 -27.299327 -78.023397 13.886295
Spine 9.405267 4.593425 -10.338586
Head 7.707974 -12.107060 6.803424
LeftShoulder 8.787251 -2.323375 26.871194
LeftArm 90.793111 46.637817 -45.865799
LeftForeArm -49.296839 -0.000000 93.424978
LeftHand -28.631024 -0.000000 18.318817
LeftHandThumb1 -26.253704 0.000000 33.147579
RightShoulder 6.004968 -31.113990 -27.226329
RightArm 77.215524 22.546876 4.221818
RightForeArm -27.363023 -0.000000 50.545360
RightHand 9.289771 0.000000 14.739228
RightHandThumb1 -24.326973 -0.000000 -32.862282
LeftUpLeg 14.360829 6.502557 5.707374
LeftLeg 11.864643 -0.000000 -0.000000
LeftFoot -13.638970 -3.504851 -11.954735
LeftToeBase 10.490957 -0.000000 -0.000000
RightUpLeg 24.401131 -18.418638 -18.238850
RightLeg 1.479446 -0.000000 -0.000000
RightFoot -11.577888 5.568123 20.382306
RightToeBase 14.754418 -0.000000 -0.000000
1321
root 1.474907 35.690099 2.816296 -27.233321 -77.971124 13.827675
Spine 9.393714 4.628878 -10.388737
Head 7.637003 -12.220810 6.848189
LeftShoulder 8.791495 -2.327680 26.867895
LeftArm 90.826481 46.652556 -45.807850
LeftForeArm -49.208727 0.000000 93.425220
LeftHand -28.669188 -0.000000 18.522790
LeftHandThumb1 -26.253704 0.000000 33.147579
RightShoulder 5.926647 -31.270256 -27.155204
RightArm 77.322231 22.563080 3.687216
RightForeArm -27.585209 -0.000000 52.005357
RightHand 9.273041 -0.000000 15.304177
RightHandThumb1 -24.326973 -0.000000 -32.862282
LeftUpLeg 14.362196 6.468343 5.699807
LeftLeg 11.844528 -0.000000 -0.000000
LeftFoot -13.639113 -3.508739 -11.940982
LeftToeBase 10.505214 -0.000000 -0.000000
RightUpLeg 24.427840 -18.446032 -18.245906
RightLeg 1.467634 -0.000000 -0.000000
RightFoot -11.586492 5.529032 20.354740
RightToeBase 14.732636 -0.000000 -0.000000
1322
root 1.470165 35.689627 2.816729 -27.162259 -77.925143 13.771179
Spine 9.372635 4.670249 -10.430529
Head 7.595201 -12.323751 6.854932
LeftShoulder 8.802320 -2.323559 26.854715
LeftArm 90.854470 46.660476 -45.731566
LeftForeArm -49.197168 0.000000 93.438164
LeftHand -28.722910 -0.000000 18.725178
LeftHandThumb1 -26.253704 0.000000 33.147579
RightShoulder 5.836727 -31.413268 -27.116523
RightArm 77.523531 22.512900 3.366933
RightForeArm -27.969729 -0.000000 53.438148
RightHand 9.335575 0.000000 15.591943
RightHandThumb1 -24.326973 -0.000000 -32.862282
LeftUpLeg 14.351913 6.440815 5.694153
LeftLeg 11.832513 -0.000000 -0.000000
LeftFoot -13.639398 -3.533210 -11.949185
LeftToeBase 10.511466 -0.000000 -0.000000
RightUpLeg 24.436722 -18.469284 -18.246937
RightLeg 1.467940 -0.000000 -0.000000
RightFoot -11.604595 5.506728 20.378454
RightToeBase 14.743256 -0.000000 -0.000000
